<?xml version="1.0" encoding="utf-8"?>
<!-- Generator: Adobe Illustrator 15.0.0, SVG Export Plug-In . SVG Version: 6.00 Build 0)  -->
<!DOCTYPE svg PUBLIC "-//W3C//DTD SVG 1.1//EN" "http://www.w3.org/Graphics/SVG/1.1/DTD/svg11.dtd">
<svg version="1.1" id="Layer_1" xmlns="http://www.w3.org/2000/svg" xmlns:xlink="http://www.w3.org/1999/xlink" x="0px" y="0px"
	 width="632.854px" height="96.828px" viewBox="0 0 632.854 96.828" enable-background="new 0 0 632.854 96.828"
	 xml:space="preserve">
<path fill="none" d="M116.025,79.209c0,1.425-1.155,2.58-2.58,2.58h-16.34c-1.425,0-2.58-1.155-2.58-2.58v-16.34
	c0-1.426,1.155-2.58,2.58-2.58h16.34c1.425,0,2.58,1.154,2.58,2.58V79.209z"/>
<path fill="#FFFFFF" d="M105.261,73.496h5.393c1.488,0,2.695-1.207,2.695-2.696v-3.894c0-1.49-1.207-2.696-2.695-2.696h-10.75
	c-1.489,0-2.696,1.206-2.696,2.696V70.8c0,1.489,1.207,2.696,2.696,2.696h1.163v4.493L105.261,73.496z"/>
<g>
	<path fill="none" d="M79.833,21.592c0,1.425-1.155,2.58-2.58,2.58h-16.34c-1.425,0-2.58-1.155-2.58-2.58V5.252
		c0-1.425,1.155-2.58,2.58-2.58h16.34c1.425,0,2.58,1.155,2.58,2.58V21.592z"/>
</g>
<g>
	<path fill="none" d="M223.5,49.657c0,1.426-1.155,2.579-2.58,2.579h-16.34c-1.425,0-2.58-1.153-2.58-2.579v-16.34
		c0-1.425,1.155-2.58,2.58-2.58h16.34c1.425,0,2.58,1.155,2.58,2.58V49.657z"/>
</g>
<g>
	<path fill="none" d="M217.382,20.705c0,1.426-1.155,2.58-2.58,2.58h-16.34c-1.425,0-2.58-1.154-2.58-2.58V4.365
		c0-1.425,1.155-2.58,2.58-2.58h16.34c1.425,0,2.58,1.155,2.58,2.58V20.705z"/>
</g>
<g>
	<path fill="none" d="M631.761,47.894c0,1.426-1.155,2.581-2.58,2.581h-16.34c-1.425,0-2.58-1.154-2.58-2.581v-16.34
		c0-1.425,1.155-2.58,2.58-2.58h16.34c1.425,0,2.58,1.155,2.58,2.58V47.894z"/>
</g>
<g>
	<path fill="none" d="M270.805,20.195c0,1.426-1.155,2.58-2.58,2.58h-16.34c-1.425,0-2.58-1.154-2.58-2.58V3.855
		c0-1.425,1.155-2.58,2.58-2.58h16.34c1.425,0,2.58,1.155,2.58,2.58V20.195z"/>
</g>
<g>
	<path fill="none" d="M83.591,80.094c0,1.426-1.155,2.58-2.58,2.58h-16.34c-1.426,0-2.58-1.154-2.58-2.58v-16.34
		c0-1.425,1.154-2.58,2.58-2.58h16.34c1.425,0,2.58,1.155,2.58,2.58V80.094z"/>
</g>
<g>
	<path fill="none" d="M22.381,79.209c0,1.426-1.155,2.58-2.58,2.58H3.461c-1.425,0-2.58-1.154-2.58-2.58v-16.34
		c0-1.426,1.155-2.58,2.58-2.58h16.34c1.425,0,2.58,1.154,2.58,2.58V79.209z"/>
</g>
<g>
	<path fill="none" d="M327.472,19.608c0,1.426-1.156,2.58-2.58,2.58h-16.341c-1.426,0-2.58-1.154-2.58-2.58V3.269
		c0-1.425,1.154-2.58,2.58-2.58h16.341c1.424,0,2.58,1.155,2.58,2.58V19.608z"/>
</g>
<g>
	<path fill="none" d="M51.5,46.136c0,1.424-1.155,2.58-2.58,2.58H32.58c-1.425,0-2.58-1.156-2.58-2.58V29.795
		c0-1.425,1.155-2.579,2.58-2.579h16.34c1.425,0,2.58,1.154,2.58,2.579V46.136z"/>
</g>
<g>
	<path fill="none" d="M438.354,19.652c0,1.424-1.153,2.58-2.579,2.58h-16.341c-1.424,0-2.579-1.156-2.579-2.58V3.311
		c0-1.425,1.155-2.579,2.579-2.579h16.341c1.426,0,2.579,1.154,2.579,2.579V19.652z"/>
</g>
<g>
	<path fill="none" d="M382.483,20.195c0,1.424-1.155,2.58-2.58,2.58h-16.34c-1.426,0-2.58-1.156-2.58-2.58V3.854
		c0-1.425,1.154-2.579,2.58-2.579h16.34c1.425,0,2.58,1.154,2.58,2.579V20.195z"/>
</g>
<g>
	<path fill="none" d="M410.511,19.908c0,1.424-1.153,2.58-2.58,2.58h-16.34c-1.424,0-2.58-1.156-2.58-2.58V3.567
		c0-1.425,1.156-2.579,2.58-2.579h16.34c1.427,0,2.58,1.154,2.58,2.579V19.908z"/>
</g>
<g>
	<path fill="none" d="M188.335,21.272c0,1.424-1.155,2.58-2.58,2.58h-16.34c-1.426,0-2.58-1.156-2.58-2.58V4.931
		c0-1.425,1.154-2.579,2.58-2.579h16.34c1.425,0,2.58,1.154,2.58,2.579V21.272z"/>
</g>
<g>
	<path fill="none" d="M241.642,20.209c0,1.424-1.155,2.58-2.58,2.58h-16.34c-1.425,0-2.58-1.156-2.58-2.58V3.868
		c0-1.425,1.155-2.579,2.58-2.579h16.34c1.425,0,2.58,1.154,2.58,2.579V20.209z"/>
</g>
<g>
	<path fill="none" d="M452.597,49.178c0,1.424-1.154,2.58-2.58,2.58h-16.34c-1.426,0-2.58-1.156-2.58-2.58V32.837
		c0-1.425,1.154-2.579,2.58-2.579h16.34c1.426,0,2.58,1.154,2.58,2.579V49.178z"/>
</g>
<path fill="none" d="M360.663,48.273c0,1.425-1.155,2.581-2.58,2.581h-16.34c-1.426,0-2.58-1.155-2.58-2.581v-16.34
	c0-1.425,1.154-2.58,2.58-2.58h16.34c1.425,0,2.58,1.155,2.58,2.58V48.273z"/>
<path fill="none" d="M510.872,19.648c0,1.425-1.155,2.58-2.58,2.58h-16.34c-1.425,0-2.58-1.155-2.58-2.58V3.309
	c0-1.425,1.155-2.58,2.58-2.58h16.34c1.425,0,2.58,1.155,2.58,2.58V19.648z"/>
<path fill="none" d="M81.707,46.54c0,1.425-1.155,2.58-2.58,2.58h-16.34c-1.426,0-2.58-1.155-2.58-2.58V30.2
	c0-1.425,1.154-2.58,2.58-2.58h16.34c1.425,0,2.58,1.155,2.58,2.58V46.54z"/>
<g>
	<path fill="none" d="M304.537,48.962c0,1.424-1.155,2.581-2.58,2.581h-16.34c-1.425,0-2.58-1.156-2.58-2.581v-16.34
		c0-1.425,1.155-2.58,2.58-2.58h16.34c1.425,0,2.58,1.155,2.58,2.58V48.962z"/>
</g>
<g>
	<path fill="none" d="M178.282,81.605c0,1.426-1.155,2.58-2.58,2.58h-16.34c-1.426,0-2.58-1.154-2.58-2.58v-16.34
		c0-1.425,1.154-2.58,2.58-2.58h16.34c1.425,0,2.58,1.155,2.58,2.58V81.605z"/>
</g>
<g>
	<path fill="#FFFFFF" d="M64.137,14.733c0-1.301,0.681-2.499,1.755-3.18C65.185,10.823,64.8,9.864,64.8,8.816
		c0-1.497,0.837-2.802,2.068-3.472l0.041-0.013c-0.489-0.406-1.118-0.65-1.803-0.65c-1.559,0-2.823,1.264-2.823,2.823
		c0,0.96,0.457,1.797,1.188,2.307l0.023,0.016c-1.023,0.376-1.753,1.354-1.753,2.507v3.187c0,1.404,1.042,2.556,2.417,2.666
		L64.137,14.733z"/>
	<path fill="#FFFFFF" d="M71.455,5.943c0.765,0.721,1.243,1.742,1.243,2.874c0,1.023-0.401,1.998-1.099,2.726
		c1.078,0.682,1.762,1.885,1.762,3.191v3.903c0,0.198-0.015,0.272-0.044,0.461l0.215-0.005c1.478,0,2.675-1.197,2.675-2.676v-3.186
		c0-1.152-0.733-2.14-1.756-2.516l0.003-0.002c0.732-0.51,1.212-1.352,1.212-2.313c0-1.559-1.264-2.823-2.823-2.823
		c-0.469,0-0.992,0.154-1.38,0.356L71.455,5.943z"/>
	<path fill="#FFFFFF" d="M70.759,11.611c1.277,0.47,2.195,1.704,2.195,3.145v3.982c0,1.847-1.497,3.344-3.344,3.344h-1.725
		c-1.847,0-3.344-1.497-3.344-3.344v-3.982c0-1.44,0.912-2.664,2.19-3.134l-0.028-0.02c-0.915-0.638-1.485-1.684-1.485-2.884
		c0-1.949,1.58-3.529,3.529-3.529c1.949,0,3.529,1.58,3.529,3.529c0,1.2-0.6,2.253-1.516,2.891L70.759,11.611z"/>
</g>
<g>
	<path fill="none" d="M510.872,48.817c0,1.426-1.155,2.58-2.58,2.58h-16.34c-1.425,0-2.58-1.153-2.58-2.58v-16.34
		c0-1.424,1.155-2.58,2.58-2.58h16.34c1.425,0,2.58,1.156,2.58,2.58V48.817z"/>
</g>
<g>
	<path fill="#FFFFFF" d="M502.659,41.018c1.694,0.624,4.083,2.261,4.083,4.173v0.961c0,2.45,0.646,3.586-4.438,3.586h-4.745
		c-5.082,0-4.325-1.136-4.325-3.586V45.19c0-1.912,2.385-3.535,4.081-4.158l-0.037-0.026c-1.215-0.847-1.973-2.234-1.973-3.827
		c0-2.587,2.098-4.684,4.685-4.684s4.684,2.097,4.684,4.684c0,1.594-0.795,2.99-2.011,3.836L502.659,41.018z"/>
</g>
<path fill="#FFFFFF" d="M356.185,38.434c0,0.712-0.578,1.29-1.291,1.29h-9.961c-0.713,0-1.291-0.578-1.291-1.29v-3.87
	c0-0.712,0.578-1.289,1.291-1.289h9.961c0.713,0,1.291,0.577,1.291,1.289V38.434z"/>
<rect x="349.574" y="39.724" fill="#FFFFFF" width="0.645" height="5.512"/>
<path fill="#FFFFFF" d="M344.287,45.953v-3.87c0-0.356,0.289-0.646,0.646-0.646h9.961c0.355,0,0.646,0.289,0.646,0.646v3.87h0.645
	v-3.87c0-0.712-0.576-1.29-1.289-1.29h-9.963c-0.712,0-1.289,0.578-1.289,1.29v3.87H344.287z"/>
<path fill="#FFFFFF" d="M358.504,46.498c0,0.355-0.289,0.645-0.646,0.645h-3.903c-0.354,0-0.646-0.289-0.646-0.645v-1.936
	c0-0.355,0.289-0.645,0.646-0.645h3.903c0.355,0,0.646,0.289,0.646,0.645V46.498z"/>
<path fill="#FFFFFF" d="M352.407,46.498c0,0.355-0.289,0.645-0.646,0.645h-3.902c-0.355,0-0.646-0.289-0.646-0.645v-1.936
	c0-0.355,0.289-0.645,0.646-0.645h3.902c0.356,0,0.646,0.289,0.646,0.645V46.498z"/>
<path fill="#FFFFFF" d="M346.332,46.498c0,0.355-0.289,0.645-0.646,0.645h-3.903c-0.356,0-0.646-0.289-0.646-0.645v-1.936
	c0-0.355,0.288-0.645,0.646-0.645h3.903c0.355,0,0.646,0.289,0.646,0.645V46.498z"/>
<circle fill="#FFFFFF" cx="499.691" cy="10.209" r="2.152"/>
<path fill="#FFFFFF" d="M498.056,12.595c-0.021,0.284-0.145,0.562-0.368,0.772l-3.683,3.471v-0.003l-0.003,0.003v0.673
	c0,0.712,0.577,1.29,1.29,1.29h9.962c0.712,0,1.29-0.578,1.29-1.29V9.707c0-0.355-0.145-0.829-0.378-1.063l-3.273-4.795
	c-0.236-0.275-0.588-0.451-0.979-0.451h-6.621c-0.713,0-1.29,0.578-1.29,1.291v8.898h0.004l2.061-1.942
	c0.268-0.252,0.62-0.355,0.96-0.313h-0.002c-0.455-1.081-0.222-2.378,0.684-3.229c1.162-1.096,2.993-1.041,4.089,0.122
	s1.042,2.993-0.121,4.089c-1.009,0.95-2.519,1.036-3.618,0.283L498.056,12.595z"/>
<g>
	<path fill="#FFFFFF" d="M63.669,34.829c-0.176-0.748,0.559-0.748,1.249-0.748h10.38c0.689,0,1.385,0.104,1.249,0.748l-1.693,6.461
		c-0.11,0.453-0.405,0.563-0.752,0.563l-8.027-0.563c-0.347,0-0.642-0.108-0.753-0.559L63.669,34.829z"/>
	<path fill="#FFFFFF" d="M74.379,43.191h-9.122c-0.173,0-0.313-0.14-0.313-0.312c0-0.173,0.14-0.313,0.313-0.313h8.934
		c0.181,0,0.367-0.294,0.396-0.447l2.049-8.182C76.711,33.693,76.928,33,77.64,33h2.704c0.172,0,0.312,0.14,0.312,0.313
		s-0.14,0.312-0.312,0.312H77.83c-0.089,0-0.254,0-0.405,0.484l-2.039,8.145C75.315,42.636,74.923,43.191,74.379,43.191z"/>
	<circle fill="#FFFFFF" cx="66.87" cy="44.284" r="1.092"/>
	<g>
		<circle fill="#FFFFFF" cx="72.255" cy="44.284" r="1.093"/>
	</g>
</g>
<path fill="#FFFFFF" d="M167.051,71.455c-0.543-0.417-0.893-1.072-0.893-1.811c0-1.258,1.02-2.276,2.277-2.276
	c0.843,0,1.539,0.377,1.933,1.058l-0.01-0.001c0.409-0.394,0.965-0.635,1.577-0.635c1.259,0,2.278,1.021,2.278,2.276
	c0,0.521-0.175,1.002-0.47,1.387l0.477-0.001c0.713,0,1.29,0.578,1.29,1.29v2.47c0,0.713-0.577,1.291-1.29,1.291h-9.961
	c-0.713,0-1.29-0.618-1.29-1.331l-3.736,0.526c-0.513,0-0.397-0.416-0.397-0.929v-1.778c0-0.515-0.115-0.931,0.397-0.931
	l3.748,0.513c0.083-0.634,0.623-1.121,1.279-1.121L167.051,71.455z M173.436,73.874c0-0.284-0.23-0.517-0.516-0.517h-7.359
	c-0.285,0-0.516,0.231-0.516,0.517v0.251c0,0.285,0.23,0.518,0.516,0.518h7.359c0.285,0,0.516-0.231,0.516-0.518V73.874z"/>
<g>
	<g>
		<path fill="#FFFFFF" d="M213.584,40.788c-1.157-1.156-1.157-3.039,0-4.195l2.14-2.141c1.157-1.156,3.04-1.156,4.196,0
			c1.157,1.157,1.157,3.039,0,4.196l-2.14,2.14C216.623,41.945,214.741,41.945,213.584,40.788z M218.952,37.89
			c0.683-0.682,0.683-1.787,0-2.47l0,0c-0.682-0.683-1.787-0.682-2.47,0l-1.931,1.931c-0.683,0.684-0.683,1.789,0,2.471l0,0
			c0.682,0.682,1.788,0.682,2.47,0L218.952,37.89z"/>
		<path fill="#FFFFFF" d="M205.847,48.526c-1.157-1.157-1.157-3.039,0-4.196l2.14-2.14c1.157-1.157,3.039-1.157,4.196,0
			c1.156,1.156,1.156,3.039,0,4.195l-2.14,2.141C208.886,49.684,207.003,49.684,205.847,48.526z M211.215,45.628
			c0.682-0.683,0.683-1.789,0-2.471l0,0c-0.682-0.682-1.788-0.682-2.47,0l-1.932,1.932c-0.682,0.682-0.682,1.787,0,2.47l0,0
			c0.683,0.683,1.788,0.683,2.471,0L211.215,45.628z"/>
	</g>
	<path fill="#FFFFFF" d="M210.63,44.669c-0.256,0.255-0.67,0.255-0.926,0l0,0c-0.256-0.256-0.256-0.671,0-0.926l5.235-5.236
		c0.256-0.256,0.67-0.256,0.926,0l0,0c0.256,0.256,0.256,0.67,0,0.926L210.63,44.669z"/>
</g>
<g>
	<path fill="#FFFFFF" d="M207.333,11.836c-1.157-1.156-1.157-3.039,0-4.195l2.14-2.141c1.157-1.156,3.039-1.156,4.196,0
		c1.157,1.157,1.157,3.039,0,4.196l-2.14,2.14C210.372,12.993,208.489,12.993,207.333,11.836z M212.701,8.938
		c0.683-0.682,0.683-1.787,0-2.47l0,0c-0.682-0.683-1.787-0.682-2.47,0L208.3,8.399c-0.683,0.684-0.683,1.789,0,2.471l0,0
		c0.682,0.682,1.787,0.682,2.47,0L212.701,8.938z"/>
	<path fill="#FFFFFF" d="M199.596,19.574c-1.157-1.157-1.157-3.039,0-4.196l2.14-2.14c1.157-1.157,3.039-1.157,4.196,0
		c1.156,1.156,1.156,3.039,0,4.195l-2.141,2.141C202.635,20.73,200.752,20.73,199.596,19.574z M204.964,16.676
		c0.682-0.683,0.682-1.789,0-2.471l0,0c-0.682-0.682-1.788-0.682-2.47,0l-1.932,1.932c-0.682,0.682-0.682,1.787,0,2.47l0,0
		c0.683,0.683,1.788,0.683,2.47,0L204.964,16.676z"/>
</g>
<g>
	<g>
		<path fill="#FFFFFF" d="M203.345,8.423c0.021,0.009,0.043,0.022,0.061,0.04c0.074,0.075,0.074,0.197,0,0.271l-0.699,0.699
			c-0.075,0.074-0.196,0.074-0.271,0c-0.008-0.008-0.015-0.016-0.021-0.024L199.9,6.234c-0.075-0.074-0.074-0.195,0-0.271
			c0.075-0.075,0.196-0.075,0.271,0L203.345,8.423z"/>
		<path fill="#FFFFFF" d="M202.139,9.627c0.023,0.002,0.048,0.008,0.071,0.018c0.096,0.045,0.137,0.16,0.092,0.256l-0.417,0.895
			c-0.045,0.096-0.159,0.138-0.255,0.094c-0.01-0.005-0.02-0.011-0.027-0.016l-2.167-1.525c-0.096-0.045-0.138-0.158-0.093-0.254
			c0.045-0.096,0.159-0.139,0.255-0.094L202.139,9.627z"/>
		<path fill="#FFFFFF" d="M203.594,8.173c0.001,0.023,0.007,0.048,0.018,0.07c0.045,0.097,0.158,0.138,0.254,0.093l0.896-0.418
			c0.096-0.045,0.138-0.158,0.093-0.254c-0.005-0.01-0.01-0.02-0.016-0.027l-1.525-2.167c-0.044-0.097-0.158-0.138-0.254-0.093
			c-0.097,0.045-0.138,0.158-0.093,0.255L203.594,8.173z"/>
	</g>
	<g>
		<path fill="#FFFFFF" d="M210.663,15.74c-0.01-0.021-0.023-0.042-0.041-0.061c-0.075-0.074-0.196-0.074-0.271,0l-0.698,0.699
			c-0.075,0.075-0.075,0.197,0,0.271c0.007,0.008,0.016,0.014,0.023,0.021l3.175,2.515c0.075,0.075,0.196,0.075,0.271,0
			c0.074-0.074,0.074-0.195,0-0.271L210.663,15.74z"/>
		<path fill="#FFFFFF" d="M209.458,16.947c-0.001-0.024-0.007-0.049-0.018-0.071c-0.045-0.096-0.159-0.138-0.255-0.093l-0.896,0.418
			c-0.096,0.045-0.138,0.158-0.093,0.254c0.005,0.01,0.01,0.02,0.016,0.027l1.524,2.168c0.045,0.096,0.159,0.137,0.255,0.092
			c0.096-0.045,0.138-0.158,0.093-0.255L209.458,16.947z"/>
		<path fill="#FFFFFF" d="M210.912,15.492c-0.023-0.002-0.047-0.008-0.07-0.018c-0.096-0.045-0.137-0.159-0.093-0.254l0.418-0.896
			c0.045-0.096,0.159-0.138,0.255-0.093c0.01,0.004,0.019,0.009,0.027,0.015l2.166,1.525c0.097,0.045,0.138,0.158,0.094,0.254
			c-0.045,0.096-0.159,0.138-0.256,0.094L210.912,15.492z"/>
	</g>
</g>
<ellipse fill="#FFFFFF" cx="620.549" cy="33.942" rx="5.038" ry="2.126"/>
<path fill="#FFFFFF" d="M625.587,45.723c0,1.175-2.255,2.126-5.037,2.126c-2.783,0-5.038-0.951-5.038-2.126V34.802
	c0,1.174,2.255,1.917,5.038,1.917c2.782,0,5.037-0.743,5.037-1.917V45.723z M623.07,37.277l-0.136,8.078c0,0-0.61,0.928-3.188,1.021
	c0,0-2.761,0.288-3.56-1.202c0,1.015,1.949,1.838,4.354,1.838s4.253-0.823,4.253-1.838v-8.52
	C624.795,36.654,624.043,37.164,623.07,37.277z"/>
<path fill="#FFFFFF" d="M78.934,78.109c0,1.178-2.709,2.133-6.051,2.133c-3.343,0-6.052-0.955-6.052-2.133l6.052-13.68
	L78.934,78.109z M72.968,66.141l2.45,11.358c0,0.813-1.798,1.397-4.016,1.397c-0.853,0-1.476-0.002-2.322-0.211
	c0.939,0.317,2.216,0.515,3.621,0.515c2.888,0,4.723-0.565,4.723-1.583L72.968,66.141"/>
<path fill="#FFFFFF" d="M252.506,11.966c0-4.102,3.325-7.428,7.427-7.428s7.428,3.326,7.428,7.428c0,4.103-3.326,7.428-7.428,7.428
	S252.506,16.069,252.506,11.966z M261.481,5.853c2.289,1.184,3.182,5.104,3.009,6.785c-0.345,3.352-3.081,5.94-6.586,5.418
	c-0.228-0.033-0.527-0.079-0.745-0.136l-0.021-0.021c0.796,0.354,1.676,0.551,2.603,0.551c3.544,0,6.418-2.874,6.418-6.418
	C266.159,9.091,264.181,6.613,261.481,5.853z"/>
<polygon fill="#FFFFFF" points="10.982,79.672 4.293,75.684 4.293,67.111 10.982,70.359 "/>
<polygon fill="#FFFFFF" points="11.542,69.5 5.043,66.411 12.119,64.639 18.28,66.668 "/>
<polygon fill="#FFFFFF" points="18.896,75.782 11.999,79.645 12.009,70.456 18.896,67.452 "/>
<path fill="#FFFFFF" d="M314.75,10.667c0.248-0.311,0.219-0.529,0.219-0.957c0-1.006-0.815-1.822-1.821-1.822
	c-0.34,0-0.483,0.001-0.783,0.109l5.345-5.301c0.268-0.158,0.578-0.249,0.911-0.249c0.985,0,1.786,0.8,1.786,1.786
	c0,0.42-0.145,0.807-0.389,1.111L314.75,10.667z"/>
<path fill="#FFFFFF" d="M314.426,17.985c-0.356,0.309-0.582,0.764-0.582,1.271c0,0.929,0.753,1.682,1.682,1.682
	c0.929,0,1.682-0.753,1.682-1.682c0-0.408-0.146-0.781-0.387-1.073l-1.295-1.249L314.426,17.985z"/>
<path fill="#FFFFFF" d="M314.023,11.251c-0.108,0.107-0.077,0.27,0.031,0.378c0.108,0.108,0.284,0.108,0.392,0l4.165-4.138
	l4.265,4.682c0.271,0.299,0.438,0.695,0.438,1.131c0,0.424-0.158,0.812-0.418,1.107l-5.205,5.363
	c0.625-1.544-0.623-2.453-0.623-2.453s-4.744-5.176-5.426-5.699c-0.681-0.523-0.522-1.451-0.522-1.451
	c0-0.928,0.752-1.681,1.681-1.681c0.929,0,1.702,0.753,1.681,1.681c-0.021,0.94-0.455,1.066-0.455,1.066L314.023,11.251z
	 M318.581,8.586c-0.068-0.067-0.178-0.066-0.245,0.001l-4.246,4.296c-0.067,0.068-0.067,0.178,0.001,0.245l0.456,0.455
	c0.068,0.066,0.178,0.066,0.245-0.002l4.246-4.295c0.066-0.068,0.066-0.178-0.002-0.246L318.581,8.586z M320.051,10.056
	c-0.067-0.067-0.178-0.066-0.245,0.002l-4.246,4.295c-0.067,0.068-0.067,0.178,0.001,0.246l0.456,0.453
	c0.068,0.068,0.178,0.067,0.245,0l4.246-4.296c0.067-0.068,0.066-0.179-0.002-0.245L320.051,10.056z M321.521,11.525
	c-0.067-0.067-0.178-0.066-0.244,0.001l-4.246,4.296c-0.067,0.068-0.067,0.178,0.001,0.245l0.456,0.455
	c0.068,0.066,0.178,0.066,0.244-0.002l4.246-4.295c0.067-0.068,0.066-0.178-0.002-0.246L321.521,11.525z"/>
<g>
	<path fill="#FFFFFF" d="M41.137,35.248l1.035-1.464h1.386c0.146,0.001,0.264-0.098,0.264-0.219c0-0.029-0.007-0.057-0.019-0.082
		l-2.814-4.209c-0.074-0.15-0.131-0.22-0.252-0.22c-0.121,0-0.188,0.081-0.252,0.22l-2.771,4.254c-0.002,0.012,0,0.025-0.003,0.037
		c-0.035,0.123,0.117,0.22,0.264,0.22h1.488l1.016,1.463H41.137z"/>
	<path fill="#FFFFFF" d="M43.452,38.323l1.463,1.034v1.386c0,0.146,0.099,0.264,0.22,0.264c0.029,0,0.057-0.006,0.082-0.018
		l4.209-2.814c0.149-0.074,0.22-0.131,0.22-0.252c0-0.122-0.08-0.188-0.22-0.253l-4.255-2.771c-0.012-0.002-0.024,0-0.036-0.003
		c-0.123-0.035-0.22,0.118-0.22,0.265v1.487l-1.463,1.016V38.323z"/>
	<path fill="#FFFFFF" d="M40.378,40.651l-1.035,1.464h-1.386c-0.146,0-0.264,0.099-0.264,0.22c0,0.029,0.007,0.057,0.019,0.082
		l2.814,4.209c0.074,0.149,0.131,0.219,0.252,0.219c0.121,0,0.188-0.08,0.253-0.219l2.77-4.255c0.002-0.012,0-0.024,0.004-0.036
		c0.034-0.123-0.118-0.22-0.265-0.22h-1.487l-1.017-1.464H40.378z"/>
	<path fill="#FFFFFF" d="M38.033,37.593l-1.464-1.035v-1.387c0-0.145-0.099-0.264-0.22-0.264c-0.028,0-0.057,0.008-0.082,0.02
		L32.06,37.74c-0.15,0.075-0.221,0.131-0.221,0.253c0,0.121,0.081,0.188,0.221,0.252l4.254,2.77c0.012,0.002,0.024,0,0.036,0.004
		c0.123,0.035,0.22-0.118,0.22-0.264v-1.488l1.464-1.016L38.033,37.593L38.033,37.593z"/>
	<circle fill="#FFFFFF" cx="40.75" cy="37.966" r="1.58"/>
</g>
<circle fill="#FFFFFF" cx="427.524" cy="11.538" r="1.653"/>
<path fill="#FFFFFF" d="M424.016,8.795c-1.368,1.747-1.25,4.282,0.359,5.891c1.74,1.739,4.539,1.759,6.277,0.02l-0.004,0.005l0,0
	c0.207-0.209,0.545-0.208,0.754,0l1.418,1.418c0.207,0.209,0.207,0.547,0,0.754l0,0l0.004-0.004
	c-2.938,2.938-7.683,2.918-10.621-0.02c-2.81-2.811-2.935-7.289-0.369-10.245l-1.291-1.291l6.297-1.159l-1.16,6.296L424.016,8.795z"
	/>
<path fill="#FFFFFF" d="M434.086,13.97c0.268,0.123,0.387,0.438,0.264,0.707l0,0c-0.123,0.268-0.438,0.385-0.707,0.264l-1.823-0.833
	c-0.269-0.122-0.388-0.438-0.265-0.706l0,0c0.123-0.268,0.439-0.387,0.707-0.264L434.086,13.97z"/>
<path fill="#FFFFFF" d="M434.518,11.505c0.293,0.021,0.515,0.275,0.494,0.57l0,0c-0.021,0.293-0.274,0.514-0.569,0.494l-2-0.143
	c-0.296-0.021-0.517-0.275-0.494-0.569l0,0c0.02-0.294,0.274-0.515,0.567-0.494L434.518,11.505z"/>
<path fill="#FFFFFF" d="M434.059,9.045c0.283-0.083,0.578,0.078,0.662,0.36l0,0c0.084,0.283-0.078,0.58-0.358,0.662l-1.925,0.567
	c-0.282,0.083-0.579-0.078-0.663-0.36l0,0c-0.082-0.283,0.077-0.579,0.36-0.662L434.059,9.045z"/>
<path fill="#FFFFFF" d="M432.77,6.901c0.234-0.177,0.568-0.129,0.746,0.106l0,0c0.179,0.236,0.129,0.57-0.106,0.746l-1.604,1.205
	c-0.233,0.176-0.567,0.129-0.746-0.107l0,0c-0.176-0.234-0.129-0.569,0.105-0.746L432.77,6.901z"/>
<g>
	<path fill="none" d="M140.517,48.962c0,1.425-1.155,2.58-2.58,2.58h-16.34c-1.425,0-2.58-1.155-2.58-2.58v-16.34
		c0-1.425,1.155-2.58,2.58-2.58h16.34c1.425,0,2.58,1.155,2.58,2.58V48.962z"/>
</g>
<path fill="#FFFFFF" d="M366.996,17.853l0.002-0.002l0,0c-0.106,0.105-0.278,0.105-0.386,0l-0.727-0.727
	c-0.106-0.107-0.106-0.279,0-0.387l0,0l-0.003,0.003l8.452-8.458l-1.316-1.311l4.642-0.854l-0.854,4.641L375.453,9.4l-1.149,1.146
	L366.996,17.853z"/>
<path fill="#FFFFFF" d="M121.998,41.367h0.005l0,0c-0.166,0-0.301-0.135-0.301-0.301v-1.601c0-0.165,0.135-0.3,0.3-0.3l0,0h-0.004
	l3.762-0.005l-0.005-1.808l4.275,2.945l-4.275,2.946l0.005-1.875l-1.786-0.003h-1.976V41.367z"/>
<path fill="#FFFFFF" d="M364.946,11.271l0.1-7.164v0.021c0-0.283,0.23-0.514,0.514-0.514c0.188,0,0.354,0.102,0.442,0.252
	l13.739,13.729c0.119,0.095,0.195,0.24,0.195,0.404c0,0.283-0.229,0.514-0.514,0.514h-7.219L364.946,11.271z M379.424,18.083
	c0.048,0,0.084-0.038,0.084-0.084c0-0.035-0.021-0.057-0.032-0.066c-0.014-0.01-0.024-0.021-0.037-0.033l-13.74-13.729
	c-0.025-0.025-0.049-0.054-0.066-0.085c-0.006-0.01-0.027-0.042-0.072-0.042s-0.084,0.038-0.084,0.084
	c0,0.008-0.097,6.967-0.097,6.967l7.004,6.988H379.424z"/>
<path fill="#FFFFFF" d="M364.828,10.556c-0.091-0.15-0.254-0.252-0.442-0.252c-0.283,0-0.514,0.23-0.514,0.514v-0.021v8.111
	c0,0.365,0.296,0.662,0.66,0.639h8.091c0.284,0.023,0.515-0.207,0.515-0.491c0-0.163-0.076-0.31-0.195-0.403L364.828,10.556z"/>
<path fill="#FFFFFF" d="M391.372,5.046c0-0.712,0.578-1.289,1.291-1.289h11.365c0.393,0,0.741,0.174,0.979,0.449l2.201,2.104
	c0.234,0.233,0.379,0.706,0.379,1.063V18.84c0,0.713-0.578,1.29-1.291,1.29h-13.635c-0.713,0-1.291-0.577-1.291-1.29L391.372,5.046
	L391.372,5.046z M402.591,5.541V9.41c0,0.214-0.174,0.387-0.389,0.387h-5.164c-0.213,0-0.387-0.173-0.387-0.387V5.541l-3.308,0.002
	c-0.106,0-0.192,0.088-0.192,0.194V18.15c0,0.106,0.086,0.193,0.192,0.193h12.271c0.106,0,0.192-0.087,0.192-0.193V7.83
	c0-0.096-0.041-0.232-0.071-0.287l-1.951-1.862c-0.021-0.021-0.043-0.045-0.064-0.069c-0.021-0.025-0.069-0.068-0.147-0.068
	L402.591,5.541z M401.28,5.779c0-0.236-0.191-0.43-0.431-0.43h-0.729c-0.238,0-0.43,0.193-0.43,0.43v2.669
	c0,0.237,0.19,0.43,0.43,0.43h0.729c0.238,0,0.431-0.192,0.431-0.43V5.779z"/>
<g>
	<path fill="none" d="M601.584,45.976c0,1.426-1.155,2.58-2.58,2.58h-16.34c-1.425,0-2.58-1.154-2.58-2.58v-16.34
		c0-1.424,1.155-2.58,2.58-2.58h16.34c1.425,0,2.58,1.156,2.58,2.58V45.976z"/>
</g>
<g>
	<path fill="#FFFFFF" d="M182.631,21.042c-3.675-0.961-6.387-4.305-6.387-8.281h2.164c0.226,0,0.41-0.152,0.41-0.342
		c0-0.045-0.011-0.087-0.029-0.127l-4.376-6.545c-0.116-0.234-0.203-0.342-0.393-0.342c-0.188,0-0.292,0.125-0.393,0.342
		l-4.308,6.616c-0.003,0.019,0,0.038-0.005,0.056c-0.056,0.191,0.184,0.342,0.41,0.342h2.309c0,4.727,3.831,8.559,8.558,8.559
		C181.387,21.319,181.994,21.243,182.631,21.042"/>
	<path fill="#FFFFFF" d="M182.433,15.924c0.096-0.359,0.424-0.621,0.813-0.615l2.803,0.014c0.346,0,0.627,0.281,0.627,0.627
		c0,0.068-0.011,0.133-0.031,0.194l-0.079,0.159c-0.665,1.812-1.837,3.187-3.625,3.801c0,0-1.806-0.551-2.405-1.036
		c0.85-0.739,1.397-1.737,1.806-2.911L182.433,15.924z"/>
</g>
<g>
	<path fill="none" d="M52.84,80.84c0,1.426-1.155,2.58-2.58,2.58H33.92c-1.426,0-2.58-1.154-2.58-2.58V64.5
		c0-1.425,1.154-2.58,2.58-2.58h16.34c1.425,0,2.58,1.155,2.58,2.58V80.84z"/>
</g>
<path fill="#FFFFFF" d="M223.454,12.025c0-4.102,3.325-7.428,7.427-7.428s7.428,3.326,7.428,7.428c0,4.103-3.326,7.428-7.428,7.428
	S223.454,16.128,223.454,12.025z M236.885,12.026c0-3.31-2.693-6.003-6.003-6.003c-3.311,0-6.003,2.693-6.003,6.003
	s2.692,6.003,6.003,6.003C234.191,18.029,236.885,15.336,236.885,12.026z"/>
<path fill="#FFFFFF" d="M231.418,20.861c0,0.238-0.192,0.43-0.43,0.43h-0.215c-0.237,0-0.43-0.191-0.43-0.43V3.264
	c0-0.237,0.192-0.43,0.43-0.43h0.215c0.237,0,0.43,0.192,0.43,0.43V20.861z"/>
<path fill="#FFFFFF" d="M239.715,11.512c0.237,0,0.431,0.192,0.431,0.43v0.215c0,0.238-0.193,0.431-0.431,0.431h-17.598
	c-0.237,0-0.43-0.192-0.43-0.431v-0.215c0-0.237,0.192-0.43,0.43-0.43H239.715z"/>
<path fill="#FFFFFF" d="M449.16,32.041c1.608-1.672-1.419,5.518-1.419,5.518c0.671,0.473-0.573,2.168-0.573,2.168
	c0.534,0.447-0.288,1.305-0.801,1.502c-0.514,0.197-0.487,0.587-0.685,1.021c-0.196,0.434,1.024,0.236,2.603,0.197
	c1.576-0.04,1.742,0.079,1.742,0.079c0.402,0.591-0.521,1.104-0.521,1.104c-0.118,0.788-0.788,0.867-0.788,0.867
	c-0.513,1.143-2.378,0.769-3.192-0.079c-1.213-1.261-1.576-0.513-1.576-0.513c-0.514,0.906-0.668,1.166-1.177,1.468
	c-0.605,0.359-1.339,0.306-1.339,0.306c-0.795,0.907-0.292,0.332-0.292,0.332c-0.378,1.291-2.071,1.562-2.071,1.562
	c-1.263,1.734-4.061,1.541-4.494,1.772c0,0-2.665,0.574-1.072-0.434c0.327-0.207,2.467-1.252,4.817-3.389
	c2.688-2.445,1.331-2.799,1.331-2.799c-0.416-0.201-0.827-0.71-1.184-0.867c-0.354-0.158-1.301,0-1.301,0
	c0-0.395,1.734-0.719,1.734-0.719c0.275-0.442,0.984-0.228,1.537-0.07c0.552,0.158,0.906,0,0.906,0s1.773-1.459,2.483-2.482
	C444.54,37.559,445.578,34.619,449.16,32.041z"/>
<path fill="#FFFFFF" d="M130.471,32.604c0-0.476,0.385-0.86,0.859-0.86l4.767,1.788c0.534,0.105,0.859,0.629,0.859,1.01v11.621
	c0,0.38-0.372,0.881-0.859,0.988l-4.767,1.615c-0.475,0-0.859-0.385-0.859-0.859l0.002-0.091h-3.204c-0.476,0-0.86-0.385-0.86-0.86
	V33.514c0-0.475,0.385-0.859,0.86-0.859h3.204L130.471,32.604z M130.487,33.14h-2.859c-0.444,0-0.805,0.36-0.805,0.805v12.581
	c0,0.445,0.36,0.805,0.805,0.805h2.859V33.14z M131.563,41.275c0.258,0,0.466-0.354,0.466-0.789s-0.208-0.788-0.466-0.788
	c-0.257,0-0.466,0.353-0.466,0.788S131.307,41.275,131.563,41.275z"/>
<path fill="#FFFFFF" d="M157.482,32.604c0-0.476,0.385-0.86,0.859-0.86l4.767,1.788c0.534,0.105,0.859,0.629,0.859,1.01v11.621
	c0,0.38-0.372,0.881-0.859,0.988l-4.767,1.615c-0.475,0-0.859-0.385-0.859-0.859l0.002-0.091h-3.204c-0.476,0-0.86-0.385-0.86-0.86
	V33.514c0-0.475,0.385-0.859,0.86-0.859h3.204L157.482,32.604z M157.499,33.14h-2.859c-0.444,0-0.805,0.36-0.805,0.805v12.581
	c0,0.445,0.36,0.805,0.805,0.805h2.859V33.14z M158.575,41.275c0.258,0,0.466-0.354,0.466-0.789s-0.208-0.788-0.466-0.788
	c-0.257,0-0.466,0.353-0.466,0.788S158.318,41.275,158.575,41.275z"/>
<g>
	<path fill="none" d="M167.528,48.962c0,1.425-1.155,2.58-2.58,2.58h-16.34c-1.425,0-2.58-1.155-2.58-2.58v-16.34
		c0-1.425,1.155-2.58,2.58-2.58h16.34c1.425,0,2.58,1.155,2.58,2.58V48.962z"/>
</g>
<path fill="#FFFFFF" d="M156.147,41.367h-0.005l0,0c0.167,0,0.301-0.135,0.301-0.301v-1.601c0-0.165-0.134-0.3-0.3-0.3l0,0h0.004
	l-3.762-0.005l0.005-1.808l-4.274,2.945l4.275,2.946l-0.006-1.875l1.786-0.003h1.976V41.367z"/>
<g>
	<path fill="#FFFFFF" d="M584.371,32.581c0-1.057,0.855-2.092,1.913-2.092h9.161c1.057,0,1.913,1.035,1.913,2.092H584.371z"/>
	<path fill="#FFFFFF" d="M588.746,29.896c0-0.48,0.39-0.951,0.871-0.951h2.51c0.48,0,0.871,0.471,0.871,0.951H588.746z"/>
	<path fill="#FFFFFF" d="M596.439,33.159v11.722c0,1.056-0.856,1.912-1.913,1.912h-7.288c-1.057,0-1.912-0.856-1.912-1.912V33.159
		H596.439z M588.259,35.22c0-0.271-0.22-0.49-0.491-0.49h-0.112c-0.271,0-0.49,0.219-0.49,0.49v9.41c0,0.271,0.22,0.49,0.49,0.49
		h0.112c0.271,0,0.491-0.22,0.491-0.49V35.22z M591.43,35.22c0-0.271-0.219-0.49-0.49-0.49h-0.113c-0.271,0-0.49,0.219-0.49,0.49
		v9.41c0,0.271,0.22,0.49,0.49,0.49h0.113c0.271,0,0.49-0.22,0.49-0.49V35.22z M594.601,35.22c0-0.271-0.219-0.49-0.489-0.49h-0.113
		c-0.271,0-0.49,0.219-0.49,0.49v9.41c0,0.271,0.219,0.49,0.49,0.49h0.113c0.271,0,0.489-0.22,0.489-0.49V35.22z"/>
</g>
<path fill="#FFFFFF" d="M33.559,64.459c0-0.456,0.37-0.825,0.826-0.825h7.274c0.25,0,0.476,0.111,0.627,0.287l1.409,1.347
	c0.149,0.149,0.241,0.452,0.241,0.681v11.086c0,0.456-0.369,0.825-0.825,0.825h-8.727c-0.456,0-0.826-0.369-0.826-0.825
	L33.559,64.459L33.559,64.459z M41.684,64.33c-0.057-0.073-0.146-0.12-0.245-0.12h-0.857c-0.172,0-0.31,0.14-0.31,0.31v1.746
	c0,0.172,0.138,0.311,0.31,0.311h2.44c0.171,0,0.334-0.186,0.31-0.438c0,0,0.004-0.191-0.14-0.354L41.684,64.33z"/>
<path fill="#FFFFFF" d="M40.208,81.012c0,0.456,0.37,0.825,0.826,0.825h8.727c0.456,0,0.825-0.369,0.825-0.825V69.926
	c0-0.228-0.092-0.529-0.241-0.68l-1.409-1.348c-0.152-0.176-0.377-0.287-0.627-0.287h-3.268l0.003,10.479
	c0,0.456-0.37,0.825-0.826,0.825h-4.01V81.012z M46.92,68.454c0-0.233,0.35-0.267,0.35-0.267h0.734c0.15,0,0.285,0.066,0.376,0.174
	l1.457,1.385c0.09,0.089,0.146,0.271,0.146,0.406v-0.008c0,0.272-0.137,0.408-0.409,0.408H47.24c-0.219,0-0.332-0.178-0.332-0.396
	L46.92,68.454z"/>
<g>
	<path fill="none" d="M540.49,20.195c0,1.425-1.155,2.58-2.58,2.58h-16.34c-1.426,0-2.58-1.155-2.58-2.58V3.855
		c0-1.425,1.154-2.58,2.58-2.58h16.34c1.425,0,2.58,1.155,2.58,2.58V20.195z"/>
</g>
<g>
	<polygon fill="none" stroke="#FFFFFF" stroke-width="0.774" stroke-miterlimit="10" points="533.752,18.578 521.065,18.578 
		525.684,5.891 538.369,5.891 	"/>
	
		<line fill="none" stroke="#FFFFFF" stroke-width="0.774" stroke-miterlimit="10" x1="531.994" y1="5.891" x2="527.377" y2="18.578"/>
	
		<line fill="none" stroke="#FFFFFF" stroke-width="0.774" stroke-miterlimit="10" x1="523.306" y1="12.422" x2="535.992" y2="12.422"/>
</g>
<g>
	<path fill="none" d="M601.597,20.195c0,1.425-1.154,2.58-2.58,2.58h-16.34c-1.425,0-2.58-1.155-2.58-2.58V3.855
		c0-1.425,1.155-2.58,2.58-2.58h16.34c1.426,0,2.58,1.155,2.58,2.58V20.195z"/>
</g>
<g>
	<path fill="#FFFFFF" d="M598.919,10.274c0-0.206-0.083-0.479-0.218-0.613l-1.27-1.211c-0.136-0.158-0.338-0.26-0.563-0.26h-1.25
		v2.369c0,0.154,0.125,0.279,0.279,0.279h3.021V10.274z"/>
</g>
<path fill="#FFFFFF" d="M591.143,15.36l-0.724,1.832l5.506-1.289l-3.164-4.686l-0.739,1.902l-1.813-0.707l-0.631-0.251l0.001-0.015
	V8.934c0-0.41,0.332-0.744,0.742-0.744h4.524v2.691c0,0.391,0.318,0.709,0.709,0.709h3.363v8.66c0,0.41-0.333,0.743-0.743,0.743
	h-7.854c-0.41,0-0.742-0.333-0.742-0.743v-5.503L591.143,15.36z"/>
<path fill="#FFFFFF" d="M588.717,4.862c-0.386,0-0.698-0.313-0.698-0.699c0-0.385,0.313-0.698,0.698-0.698s0.698,0.313,0.698,0.698
	C589.415,4.548,589.102,4.862,588.717,4.862z M588.716,14.395l-2.77-1.101l0.004,0.002l0,0c-0.168-0.066-0.251-0.256-0.186-0.424
	l0.637-1.623c0.064-0.168,0.256-0.251,0.425-0.185l0,0l-0.005-0.002l1.896,0.756l-0.002-3.482c0-0.451,0.366-0.816,0.817-0.816
	h5.145V5.701c0-0.262-0.212-0.474-0.473-0.474h-2.037l0,0c0-0.588-0.477-1.064-1.064-1.064h-1.224c0-0.646-0.523-1.171-1.172-1.171
	c-0.646,0-1.171,0.524-1.171,1.171h-1.208c-0.588,0-1.064,0.477-1.064,1.064l0,0h-2.037c-0.261,0-0.473,0.212-0.473,0.474v13.005
	c0,0.262,0.212,0.474,0.473,0.474h5.488L588.716,14.395z"/>
<path fill="none" d="M540.49,48.354c0,1.425-1.155,2.58-2.58,2.58h-16.34c-1.426,0-2.58-1.154-2.58-2.58v-16.34
	c0-1.425,1.154-2.58,2.58-2.58h16.34c1.425,0,2.58,1.155,2.58,2.58V48.354z"/>
<g>
	<path fill="#FFFFFF" d="M527.354,35.059c0-0.499,0.404-0.903,0.902-0.903h6.087c0.274,0,0.521,0.122,0.688,0.315l2.291,2.775
		c0.163,0.163,0.265,0.494,0.265,0.744v10.256c0,0.498-0.404,0.902-0.903,0.902h-8.426c-0.498,0-0.901-0.404-0.901-0.902V35.059
		H527.354z"/>
	<path fill="#FFFFFF" d="M527.498,33.439c-0.549,0-0.993,0.445-0.993,0.993l0.015,12.451h-3.63c-0.499,0-0.902-0.404-0.902-0.903
		V32.578c0-0.499,0.403-0.903,0.902-0.903h6.085c0.273,0,0.521,0.122,0.687,0.315l1.198,1.448L527.498,33.439z"/>
</g>
<path fill="none" d="M253.055,91.225c0,2.504-2.031,4.532-4.536,4.532h-31.077c-2.504,0-4.535-2.028-4.535-4.532V62.504
	c0-2.504,2.031-4.534,4.535-4.534h31.077c2.505,0,4.536,2.03,4.536,4.534V91.225z"/>
<path fill="none" d="M109.391,51.061c0,1.426-1.155,2.58-2.58,2.58h-16.34c-1.425,0-2.58-1.154-2.58-2.58V34.721
	c0-1.425,1.155-2.58,2.58-2.58h16.34c1.425,0,2.58,1.155,2.58,2.58V51.061z"/>
<g>
	<path fill="#FFFFFF" d="M102.471,38.78c0,0-1.164-0.374-1.544-0.412c0,0,0.282,1.151,0.306,1.548c0,0,0.609,0.106,1.611,0.339
		C102.844,40.255,102.622,39.314,102.471,38.78z"/>
	<path fill="#FFFFFF" d="M102.471,46.788c0,0-1.164,0.375-1.544,0.413c0,0,0.282-1.151,0.306-1.548c0,0,0.609-0.106,1.611-0.339
		C102.844,45.314,102.622,46.255,102.471,46.788z"/>
	<path fill="#FFFFFF" d="M93.223,37.67c0,0,0.878-0.646,0.922-0.645c0,0-0.371,0.518-0.672,1.021c0,0-0.354,0.228-1.004,0.964
		C92.469,39.011,92.718,38.406,93.223,37.67z"/>
	<path fill="#FFFFFF" d="M93.223,47.866c0,0,0.878,0.646,0.922,0.645c0,0-0.371-0.517-0.672-1.021c0,0-0.354-0.228-1.004-0.963
		C92.469,46.526,92.718,47.131,93.223,47.866z"/>
	<g>
		<path fill="#FFFFFF" d="M97.053,39.719c0,0-1.218,0.122-1.544,0.185c0,0-0.17,1.118-0.147,1.515c0,0,0.511-0.031,1.58-0.093
			C96.942,41.325,97,40.319,97.053,39.719z"/>
		<path fill="#FFFFFF" d="M95.368,41.418c0,0-1.331,0.148-1.657,0.21c0,0-0.106,1.375,0.037,2.276c0,0,0.444,0.065,1.683,0.24
			C95.43,44.145,95.273,42.206,95.368,41.418z"/>
		<path fill="#FFFFFF" d="M92.344,41.927c0,0-0.324,0.104-0.669,0.227c0,0-0.055,0.262-0.002,1.188c0,0,0.202,0.084,0.681,0.227
			C92.354,43.568,92.25,42.715,92.344,41.927z"/>
		<path fill="#FFFFFF" d="M95.793,38.406c0,0-1.191,0.327-1.586,0.553c0,0-0.289,0.993-0.329,1.366c0,0,0.532-0.224,1.621-0.411
			C95.5,39.914,95.637,39.125,95.793,38.406z"/>
		<path fill="#FFFFFF" d="M99.617,38.163c0,0-2.002-0.129-2.347-0.001c0,0-0.18,1.096-0.217,1.557c0,0,1.561-0.101,2.752,0.022
			C99.805,39.741,99.698,38.733,99.617,38.163z"/>
		<path fill="#FFFFFF" d="M101.233,39.916c0,0-1.112-0.167-1.413-0.162c0,0,0.064,1.188,0.087,1.584c0,0,0.405,0.021,1.489,0.103
			C101.396,41.44,101.317,40.567,101.233,39.916z"/>
		<path fill="#FFFFFF" d="M103.034,41.642c0,0-1.324-0.191-1.639-0.188c0,0,0.126,1.986-0.003,2.72c0,0,0.833-0.087,1.647-0.2
			C103.04,43.973,103.133,42.2,103.034,41.642z"/>
		<path fill="#FFFFFF" d="M105.426,42.257c0,0-0.416-0.196-0.936-0.311c0,0,0.077,1.012-0.018,1.729c0,0,0.563-0.142,0.945-0.315
			C105.418,43.36,105.468,42.813,105.426,42.257z"/>
		<path fill="#FFFFFF" d="M99.902,41.343c0,0-2.634-0.079-2.96-0.018c0,0-0.095,2.171-0.015,2.934c0,0,1.93,0.111,2.957,0
			C99.884,44.259,99.986,43.003,99.902,41.343z"/>
		<path fill="#FFFFFF" d="M93.878,40.325c0,0-1.014,0.354-1.417,0.649c0,0-0.096,0.538-0.114,0.952c0,0,0.578-0.169,1.363-0.299
			C93.71,41.628,93.787,40.905,93.878,40.325z"/>
		<path fill="#FFFFFF" d="M94.945,37.182c0,0-0.677,0.259-1.468,0.858c0,0-0.621,1.253-0.759,1.842c0,0,0.59-0.473,1.499-0.926
			C94.217,38.956,94.477,37.987,94.945,37.182z"/>
		<path fill="#FFFFFF" d="M97.587,36.591c0,0-0.881,0.066-1.256,0.161c0,0-0.433,1.069-0.538,1.654c0,0,0.504-0.163,1.477-0.244
			C97.27,38.162,97.435,37.232,97.587,36.591z"/>
		<path fill="#FFFFFF" d="M96.731,35.977c0,0-0.576,0.114-1.238,0.374c0,0-0.298,0.378-0.548,0.831c0,0,0.485-0.229,1.387-0.43
			C96.332,36.752,96.449,36.446,96.731,35.977z"/>
		<path fill="#FFFFFF" d="M99.068,35.84c0,0-0.912-0.055-1.243-0.014c0,0-0.104,0.315-0.237,0.765c0,0,0.644-0.008,1.729,0.08
			C99.316,36.671,99.239,36.387,99.068,35.84z"/>
		<path fill="#FFFFFF" d="M100.5,36.906c0,0-0.864-0.235-1.184-0.235c0,0,0.275,1.099,0.299,1.495c0,0,0.278,0.027,1.321,0.193
			C100.936,38.359,100.683,37.44,100.5,36.906z"/>
		<path fill="#FFFFFF" d="M103.441,38.21c0,0-0.861-0.566-1.54-0.825c0,0,0.466,1.021,0.563,1.393c0,0,0.902,0.333,1.462,0.634
			C104.046,39.478,103.481,38.288,103.441,38.21z"/>
		<path fill="#FFFFFF" d="M104.323,40.766c0,0-1.11-0.431-1.479-0.511c0,0,0.12,0.766,0.177,1.395c0,0,0.766,0.089,1.47,0.297
			C104.491,41.946,104.423,41.324,104.323,40.766z"/>
		<path fill="#FFFFFF" d="M105.069,40.216c0,0-0.52-0.475-1.106-0.789c0,0,0.245,0.693,0.365,1.348c0,0,0.733,0.326,0.995,0.543
			C105.323,41.317,105.226,40.816,105.069,40.216z"/>
		<path fill="#FFFFFF" d="M103.894,37.731c0,0-0.873-0.631-1.287-0.801c0,0,0.388,0.446,0.834,1.278c0,0,0.666,0.426,1.293,1.09
			C104.734,39.299,104.391,38.439,103.894,37.731z"/>
		<path fill="#FFFFFF" d="M101.236,36.317c0,0-0.593-0.211-1.154-0.317c0,0,0.194,0.303,0.415,0.9c0,0,0.865,0.249,1.404,0.484
			C101.901,37.385,101.655,36.84,101.236,36.317z"/>
		<path fill="#FFFFFF" d="M101.014,35.633c0,0-0.556-0.239-0.87-0.236c0,0,0.606,0.28,1.09,0.921c0,0,0.8,0.273,1.354,0.595
			C102.587,36.912,101.945,36.068,101.014,35.633z"/>
		<path fill="#FFFFFF" d="M99.202,35.158c0,0-0.322-0.039-0.414,0c0,0,0.097,0.211,0.282,0.679c0,0,0.822,0.117,1.012,0.163
			C100.082,36,99.688,35.222,99.202,35.158z"/>
		<path fill="#FFFFFF" d="M97.597,35.158c0,0,0.416-0.039,0.507,0c0,0-0.103,0.195-0.274,0.663c0,0-0.814,0.065-1.099,0.155
			C96.731,35.977,97.174,35.261,97.597,35.158z"/>
		<path fill="#FFFFFF" d="M95.813,35.633c0,0,0.752-0.261,0.843-0.222c0,0-0.614,0.222-1.159,0.932c0,0-0.758,0.311-1.352,0.683
			C94.145,37.025,94.872,36.06,95.813,35.633z"/>
		<path fill="#FFFFFF" d="M91.902,40.667c0,0,0.404-0.483,0.823-0.782c0,0-0.192,0.599-0.264,1.09c0,0-0.27,0.163-0.714,0.506
			L91.902,40.667z"/>
		<path fill="#FFFFFF" d="M91.125,42.118c0,0,0.298-0.365,0.623-0.642c0,0-0.043,0.281-0.072,0.677c0,0-0.188,0.076-0.59,0.268
			L91.125,42.118z"/>
		<path fill="#FFFFFF" d="M92.449,39.033c0,0-0.655,0.739-1.167,1.966c0,0-0.063,0.277-0.127,0.708c0,0,0.499-0.802,0.747-1.04
			C91.902,40.667,92.123,39.741,92.449,39.033z"/>
		<path fill="#FFFFFF" d="M105.323,41.317c0,0,0.459,0.298,0.648,0.743c0,0,0.076,0.051,0.102,0.703c0,0-0.069-0.248-0.646-0.507
			L105.323,41.317z"/>
		<path fill="#FFFFFF" d="M105.712,40.719c0,0-0.354-0.813-0.956-1.396c0,0,0.147,0.302,0.314,0.892c0,0,0.562,0.444,0.806,1.275
			L105.712,40.719z"/>
		<path fill="#FFFFFF" d="M102.542,36.278c-0.04-0.025,0.898,0.742,1.352,1.453c0,0,0.468,0.372,0.715,0.585
			C104.609,38.316,103.88,37.168,102.542,36.278z"/>
	</g>
	<path fill="#FFFFFF" d="M97.039,45.839c0,0-1.219-0.123-1.545-0.185c0,0-0.17-1.118-0.147-1.515c0,0,0.511,0.031,1.581,0.092
		C96.927,44.231,96.985,45.237,97.039,45.839z"/>
	<path fill="#FFFFFF" d="M95.778,47.151c0,0-1.19-0.327-1.585-0.553c0,0-0.29-0.993-0.33-1.366c0,0,0.533,0.223,1.621,0.411
		C95.484,45.644,95.623,46.432,95.778,47.151z"/>
	<path fill="#FFFFFF" d="M99.601,47.395c0,0-2.001,0.128-2.347,0c0,0-0.18-1.095-0.216-1.556c0,0,1.561,0.101,2.752-0.022
		C99.791,45.816,99.682,46.824,99.601,47.395z"/>
	<path fill="#FFFFFF" d="M101.217,45.642c0,0-1.112,0.167-1.412,0.162c0,0,0.063-1.188,0.087-1.584c0,0,0.404-0.021,1.489-0.104
		C101.381,44.116,101.302,44.989,101.217,45.642z"/>
	<path fill="#FFFFFF" d="M93.863,45.232c0,0-1.013-0.354-1.416-0.65c0,0-0.097-0.537-0.115-0.951c0,0,0.578,0.169,1.364,0.298
		C93.696,43.929,93.771,44.652,93.863,45.232z"/>
	<path fill="#FFFFFF" d="M94.929,48.376c0,0-0.676-0.259-1.467-0.858c0,0-0.622-1.253-0.76-1.843c0,0,0.591,0.474,1.5,0.927
		C94.203,46.602,94.461,47.57,94.929,48.376z"/>
	<path fill="#FFFFFF" d="M97.573,48.967c0,0-0.881-0.066-1.257-0.161c0,0-0.432-1.069-0.538-1.654c0,0,0.504,0.163,1.477,0.243
		C97.254,47.395,97.419,48.324,97.573,48.967z"/>
	<path fill="#FFFFFF" d="M96.716,49.58c0,0-0.576-0.113-1.239-0.373c0,0-0.297-0.378-0.548-0.831c0,0,0.486,0.228,1.387,0.43
		C96.316,48.806,96.434,49.111,96.716,49.58z"/>
	<path fill="#FFFFFF" d="M99.052,49.718c0,0-0.912,0.056-1.242,0.015c0,0-0.104-0.316-0.237-0.766c0,0,0.643,0.008,1.728-0.081
		C99.3,48.886,99.224,49.171,99.052,49.718z"/>
	<path fill="#FFFFFF" d="M100.485,48.65c0,0-0.865,0.235-1.185,0.235c0,0,0.276-1.099,0.299-1.494c0,0,0.278-0.027,1.321-0.193
		C100.92,47.198,100.668,48.117,100.485,48.65z"/>
	<path fill="#FFFFFF" d="M103.425,47.348c0,0-0.86,0.565-1.539,0.825c0,0,0.466-1.021,0.563-1.393c0,0,0.901-0.333,1.461-0.635
		C104.032,46.08,103.465,47.27,103.425,47.348z"/>
	<path fill="#FFFFFF" d="M104.308,44.792c0,0-1.11,0.431-1.479,0.511c0,0,0.119-0.766,0.177-1.395c0,0,0.765-0.09,1.47-0.298
		C104.476,43.61,104.408,44.233,104.308,44.792z"/>
	<path fill="#FFFFFF" d="M105.054,45.341c0,0-0.521,0.476-1.106,0.789c0,0,0.245-0.693,0.365-1.347c0,0,0.733-0.327,0.994-0.544
		C105.307,44.239,105.21,44.74,105.054,45.341z"/>
	<path fill="#FFFFFF" d="M103.878,47.826c0,0-0.872,0.63-1.286,0.801c0,0,0.387-0.446,0.834-1.278c0,0,0.665-0.427,1.292-1.09
		C104.718,46.259,104.376,47.118,103.878,47.826z"/>
	<path fill="#FFFFFF" d="M101.221,49.24c0,0-0.594,0.21-1.154,0.316c0,0,0.194-0.303,0.414-0.9c0,0,0.865-0.249,1.405-0.483
		C101.886,48.173,101.639,48.717,101.221,49.24z"/>
	<path fill="#FFFFFF" d="M101,49.925c0,0-0.556,0.239-0.87,0.236c0,0,0.605-0.28,1.09-0.922c0,0,0.799-0.272,1.353-0.594
		C102.572,48.646,101.93,49.488,101,49.925z"/>
	<path fill="#FFFFFF" d="M99.186,50.398c0,0-0.322,0.039-0.413,0c0,0,0.097-0.211,0.282-0.679c0,0,0.822-0.118,1.012-0.163
		C100.067,49.557,99.673,50.335,99.186,50.398z"/>
	<path fill="#FFFFFF" d="M97.582,50.398c0,0,0.416,0.039,0.508,0c0,0-0.103-0.194-0.275-0.664c0,0-0.813-0.064-1.098-0.154
		C96.716,49.58,97.159,50.296,97.582,50.398z"/>
	<path fill="#FFFFFF" d="M95.797,49.925c0,0,0.752,0.261,0.844,0.222c0,0-0.615-0.222-1.16-0.933c0,0-0.757-0.31-1.351-0.682
		C94.13,48.532,94.857,49.498,95.797,49.925z"/>
	<path fill="#FFFFFF" d="M91.886,44.891c0,0,0.405,0.482,0.824,0.782c0,0-0.192-0.6-0.264-1.091c0,0-0.271-0.163-0.714-0.506
		L91.886,44.891z"/>
	<path fill="#FFFFFF" d="M91.11,43.439c0,0,0.297,0.365,0.623,0.642c0,0-0.043-0.281-0.072-0.677c0,0-0.188-0.076-0.591-0.269
		L91.11,43.439z"/>
	<path fill="#FFFFFF" d="M92.434,46.524c0,0-0.655-0.74-1.168-1.966c0,0-0.063-0.277-0.126-0.708c0,0,0.499,0.802,0.746,1.04
		C91.886,44.891,92.107,45.816,92.434,46.524z"/>
	<path fill="#FFFFFF" d="M105.307,44.239c0,0,0.46-0.297,0.649-0.743c0,0,0.075-0.051,0.102-0.703c0,0-0.07,0.248-0.647,0.508
		L105.307,44.239z"/>
	<path fill="#FFFFFF" d="M105.698,44.839c0,0-0.354,0.813-0.957,1.397c0,0,0.147-0.302,0.315-0.892c0,0,0.561-0.445,0.806-1.275
		L105.698,44.839z"/>
	<path fill="#FFFFFF" d="M102.527,49.277c-0.04,0.027,0.898-0.74,1.352-1.451c0,0,0.469-0.373,0.716-0.585
		C104.594,47.241,103.865,48.389,102.527,49.277z"/>
	
		<ellipse fill="none" stroke="#FFFFFF" stroke-width="0.2276" stroke-miterlimit="10" cx="98.577" cy="42.753" rx="7.674" ry="7.98"/>
</g>
<path fill="none" d="M298.496,20.204c0,1.425-1.155,2.58-2.58,2.58h-16.34c-1.425,0-2.58-1.155-2.58-2.58V3.864
	c0-1.426,1.155-2.58,2.58-2.58h16.34c1.425,0,2.58,1.154,2.58,2.58V20.204z"/>
<path fill="#FFFFFF" d="M280.308,12.021c0-4.103,3.325-7.428,7.428-7.428c4.102,0,7.427,3.325,7.427,7.428s-3.325,7.428-7.427,7.428
	C283.633,19.449,280.308,16.124,280.308,12.021z M293.738,12.022c0-3.311-2.692-6.004-6.003-6.004c-3.31,0-6.003,2.693-6.003,6.004
	c0,3.31,2.693,6.003,6.003,6.003C291.046,18.025,293.738,15.332,293.738,12.022z"/>
<path fill="#FFFFFF" d="M292.216,6.478c0.135-0.135,0.173,0.047,0.308,0.182l0.122,0.122c0.135,0.136,0.741,0.597,0.606,0.731
	l-10.015,10.015c-0.136,0.135-0.673-0.425-0.808-0.561l-0.122-0.122c-0.136-0.135-0.241-0.218-0.106-0.353L292.216,6.478z"/>
<path fill="none" d="M195.714,51.361c0,1.424-1.155,2.58-2.579,2.58h-16.341c-1.425,0-2.58-1.156-2.58-2.58v-16.34
	c0-1.426,1.155-2.58,2.58-2.58h16.341c1.424,0,2.579,1.154,2.579,2.58V51.361z"/>
<g>
	
		<rect x="180.144" y="36.368" transform="matrix(0.7073 0.7069 -0.7069 0.7073 81.8837 -115.7558)" fill="#FFFFFF" width="1.172" height="9.276"/>
	
		<rect x="180.148" y="42.109" transform="matrix(-0.7067 0.7075 -0.7075 -0.7067 341.5308 -48.0886)" fill="#FFFFFF" width="1.171" height="9.278"/>
	<polygon fill="#FFFFFF" points="184.812,38.534 183.199,36.92 184.812,36.92 	"/>
	<polygon fill="#FFFFFF" points="183.208,50.832 184.82,49.219 184.82,50.832 	"/>
	
		<rect x="177.876" y="41.847" transform="matrix(-0.7072 -0.707 0.707 -0.7072 276.1099 202.1155)" fill="#FFFFFF" width="4.067" height="4.066"/>
</g>
<g>
	<path fill="#FFFFFF" d="M178.382,38.52v-1.655l-1.277-2.387h1.05l0.407,0.972c0.126,0.294,0.217,0.51,0.313,0.773h0.012
		c0.09-0.252,0.186-0.485,0.306-0.773l0.408-0.972h1.025l-1.331,2.356v1.686H178.382z"/>
</g>
<g>
	<path fill="#FFFFFF" d="M190.194,51.51l-0.365-0.73c-0.15-0.282-0.246-0.492-0.36-0.727h-0.012
		c-0.084,0.233-0.186,0.443-0.318,0.727l-0.329,0.73h-1.044l1.17-2.045l-1.128-1.997h1.05l0.354,0.738
		c0.12,0.245,0.21,0.443,0.306,0.671h0.013c0.096-0.258,0.174-0.438,0.275-0.671l0.342-0.738h1.044l-1.14,1.974l1.199,2.068H190.194
		z"/>
</g>
<g>
	<path fill="none" d="M22.749,47.715c0,1.426-1.155,2.58-2.58,2.58H3.829c-1.425,0-2.58-1.154-2.58-2.58v-16.34
		c0-1.425,1.155-2.579,2.58-2.579h16.34c1.425,0,2.58,1.154,2.58,2.579V47.715z"/>
</g>
<path fill="#FFFFFF" d="M13.81,37.739l5.16,1.807l-5.211,1.857l-1.807,5.314l-1.857-5.366l-5.314-1.755l5.418-1.909l1.754-5.314
	L13.81,37.739z"/>
<g>
	<path fill="#FFFFFF" d="M11.096,32.167v-2.026h0.535l0.421,0.742c0.12,0.213,0.237,0.466,0.331,0.695h0.006
		c-0.027-0.268-0.036-0.542-0.036-0.848v-0.589h0.421v2.026h-0.481l-0.433-0.781c-0.12-0.217-0.256-0.478-0.352-0.716h-0.012
		c0.015,0.271,0.021,0.556,0.021,0.887v0.61H11.096z"/>
</g>
<g>
	<path fill="#FFFFFF" d="M11.456,48.609c0.12,0.063,0.313,0.126,0.508,0.126c0.21,0,0.321-0.087,0.321-0.22
		c0-0.126-0.096-0.198-0.34-0.282c-0.336-0.12-0.559-0.307-0.559-0.602c0-0.346,0.291-0.606,0.767-0.606
		c0.231,0,0.396,0.045,0.517,0.102l-0.103,0.367c-0.078-0.039-0.225-0.097-0.42-0.097c-0.199,0-0.295,0.094-0.295,0.195
		c0,0.13,0.111,0.187,0.376,0.286c0.357,0.132,0.522,0.318,0.522,0.604c0,0.34-0.259,0.629-0.814,0.629
		c-0.231,0-0.46-0.063-0.574-0.127L11.456,48.609z"/>
</g>
<g>
	<path fill="#FFFFFF" d="M2.724,40.553l-0.481-2.026h0.49l0.153,0.833c0.045,0.243,0.087,0.505,0.12,0.709h0.006
		c0.033-0.219,0.081-0.463,0.133-0.715l0.171-0.827h0.487l0.162,0.854c0.045,0.237,0.078,0.453,0.108,0.679H4.08
		c0.03-0.226,0.075-0.463,0.117-0.706l0.165-0.827h0.466l-0.522,2.026H3.809l-0.172-0.872c-0.039-0.204-0.071-0.394-0.096-0.625
		H3.536c-0.036,0.229-0.069,0.421-0.117,0.625l-0.192,0.872H2.724z"/>
</g>
<g>
	<path fill="#FFFFFF" d="M20.374,39.696h-0.745v0.48h0.833v0.376h-1.29v-2.026h1.248v0.376h-0.791v0.421h0.745V39.696z"/>
</g>
<g>
	<path fill="none" d="M570.393,20.194c0,1.425-1.154,2.58-2.58,2.58h-16.34c-1.425,0-2.58-1.155-2.58-2.58V3.854
		c0-1.424,1.155-2.58,2.58-2.58h16.34c1.426,0,2.58,1.155,2.58,2.58V20.194z"/>
</g>
<g>
	<path fill="#FFFFFF" d="M554.982,6.815c0,0.38-0.309,0.688-0.688,0.688h-2.834c-0.38,0-0.688-0.308-0.688-0.688V3.981
		c0-0.38,0.309-0.688,0.688-0.688h2.834c0.38,0,0.688,0.308,0.688,0.688V6.815z"/>
	<path fill="#FFFFFF" d="M554.982,12.343c0,0.38-0.309,0.688-0.688,0.688h-2.834c-0.38,0-0.688-0.309-0.688-0.688V9.509
		c0-0.38,0.309-0.688,0.688-0.688h2.834c0.38,0,0.688,0.308,0.688,0.688V12.343z"/>
	<path fill="#FFFFFF" d="M554.982,17.871c0,0.38-0.309,0.688-0.688,0.688h-2.834c-0.38,0-0.688-0.309-0.688-0.688v-2.834
		c0-0.38,0.309-0.688,0.688-0.688h2.834c0.38,0,0.688,0.309,0.688,0.688V17.871z"/>
	<path fill="#FFFFFF" d="M560.395,6.815c0,0.38-0.309,0.688-0.688,0.688h-2.834c-0.38,0-0.688-0.308-0.688-0.688V3.981
		c0-0.38,0.308-0.688,0.688-0.688h2.834c0.38,0,0.688,0.308,0.688,0.688V6.815z"/>
	<path fill="#FFFFFF" d="M560.395,12.343c0,0.38-0.309,0.688-0.688,0.688h-2.834c-0.38,0-0.688-0.309-0.688-0.688V9.509
		c0-0.38,0.308-0.688,0.688-0.688h2.834c0.38,0,0.688,0.308,0.688,0.688V12.343z"/>
	<path fill="#FFFFFF" d="M565.806,6.815c0,0.38-0.308,0.688-0.688,0.688h-2.834c-0.38,0-0.688-0.308-0.688-0.688V3.981
		c0-0.38,0.31-0.688,0.688-0.688h2.834c0.38,0,0.688,0.308,0.688,0.688V6.815z"/>
</g>
<path fill="#FFFFFF" d="M567.222,18.095l-0.004-0.003l0,0c0.118,0.118,0.118,0.308,0.001,0.426l-1.133,1.132
	c-0.116,0.117-0.307,0.117-0.424,0l0,0l0.003,0.002l-2.663-2.656l-1.275,1.282l-0.938-5.106l5.105,0.94l-1.33,1.322l1.263,1.265
	L567.222,18.095z"/>
<path fill="none" d="M627.464,19.708c0,1.425-1.155,2.58-2.58,2.58h-16.34c-1.425,0-2.58-1.155-2.58-2.58V3.368
	c0-1.425,1.155-2.58,2.58-2.58h16.34c1.425,0,2.58,1.155,2.58,2.58V19.708z"/>
<g>
	<path fill="#FFFFFF" d="M623.659,4.826c-0.162-0.133-2.413-2.054-3.847-1.686c-0.965,0.247-0.564,1.638-0.211,2.17
		c0.156,0.233,1.63,2.365,1.778,2.682c0.083,0.175,0.228,0.477-0.498-0.115c0,0-1.662-1.35-2.193-1.601
		c-0.532-0.252-1.487-0.764-2.071-0.207c-0.461,0.439,0.504,2.187,0.504,2.187s1.521,2.466,1.627,2.621
		c0.16,0.24,0.233,0.439-0.237,0.142c-0.606-0.386-1.538-1.207-1.818-1.385c-0.281-0.177-1.894-1.523-2.589-1.021
		c-0.695,0.503-0.134,1.612,0,1.864s1.746,2.544,1.79,2.633c0.045,0.089,0.725,1.021,0.518,1.036s-1.523-0.977-1.701-1.125
		c-0.177-0.147-1.412-1.096-1.938-1.523c-0.211-0.172-0.991-0.532-1.523-0.104c-0.533,0.429,0.474,1.953,0.474,1.953l1.436,2.114
		c0,0,1.1,1.542,0.729,1.424c-0.37-0.118-1.81-1.229-1.81-1.229s-1.878-1.51-2.012-1.568c-0.134-0.06-0.911-0.697-1.494-0.089
		c-0.535,0.558,0.296,1.391,0.296,1.391s1.242,1.287,1.258,1.42c0.016,0.133-0.239-0.077-0.65-0.508c0,0-1.199-1.384-1.36-1.341
		c-0.55,0.144,0.104,0.799,0.177,0.902c0.074,0.104,2.189,2.381,2.189,2.381s1.908,1.894,2.114,1.968
		c0.207,0.074,0.756,0.429,1.036,0c0.28-0.429-0.029-0.888-0.223-1.184c-0.193-0.296-0.695-1.021-0.68-1.064
		c0.015-0.045,0.015-0.015,0.177,0.074c0.163,0.088,1.405,0.932,2.249,0.562c0.843-0.37,0.695-1.109,0.532-1.568
		c-0.162-0.458-1.169-2.079-1.415-2.415c-0.217-0.296-0.286-0.425,0.023-0.188c0.312,0.236,2.238,1.674,2.964,1.704
		c0.726,0.029,1.017-0.285,1.061-0.507c0.045-0.222,0.354-0.592-0.591-2.159c-0.947-1.568-1.226-1.94-1.259-1.982
		c-0.06-0.075-0.369-0.532,0.147-0.104c0.517,0.428,2.56,1.819,2.796,1.938c0.237,0.118,1.065,0.311,1.479-0.015
		c0.414-0.326,0.296-1.198-0.147-1.879c-0.444-0.68-1.657-2.589-1.716-2.677c-0.061-0.089-0.504-0.813-0.326-0.71
		s1.287,0.961,1.376,1.035c0.089,0.074,1.73,1.331,2.293,1.538s1.195,0.092,1.405-0.252c0.229-0.378,0.314-0.795-0.296-1.73
		c-0.698-1.068-1.948-2.75-2.251-3.258c-0.298-0.501-0.175-0.439,0.076-0.277c0.252,0.163,1.952,1.332,2.41,1.731
		c0.459,0.398,1.646,1.37,2.367,1.153C626.92,7.726,624.145,5.225,623.659,4.826z"/>
</g>
<path fill="#FFFFFF" d="M224.519,86.811c0,0.517,0.352,0.938,0.783,0.938c0.102,0,0.2-0.023,0.291-0.066l14.979-10.015
	c0.534-0.267,0.785-0.467,0.785-0.899c0-0.432-0.289-0.666-0.785-0.896l-15.141-9.857c-0.043-0.008-0.088,0-0.13-0.014
	c-0.436-0.125-0.782,0.422-0.782,0.939V86.811z"/>
<path fill="none" d="M302.375,92.219c0,2.504-2.031,4.533-4.536,4.533h-31.438c-2.504,0-4.535-2.029-4.535-4.533v-28.72
	c0-2.504,2.03-4.534,4.535-4.534h31.438c2.505,0,4.536,2.03,4.536,4.534V92.219z"/>
<g>
	<path fill="#FFFFFF" d="M279.458,67.139c0.563,0,1.02,0.456,1.02,1.02v19.576c0,0.563-0.457,1.021-1.02,1.021h-3.063
		c-0.563,0-1.019-0.458-1.019-1.021V68.157c0-0.563,0.456-1.021,1.019-1.021h3.063V67.139z"/>
	<path fill="#FFFFFF" d="M288.13,67.139c0.564,0,1.021,0.456,1.021,1.02v19.576c0,0.563-0.457,1.021-1.021,1.021h-3.06
		c-0.563,0-1.021-0.458-1.021-1.021V68.157c0-0.563,0.457-1.021,1.021-1.021h3.06V67.139z"/>
</g>
<path fill="none" d="M350.272,91.225c0,2.504-2.03,4.532-4.535,4.532h-31.229c-2.504,0-4.534-2.028-4.534-4.532V62.504
	c0-2.504,2.03-4.534,4.534-4.534h31.229c2.505,0,4.535,2.03,4.535,4.534V91.225z"/>
<path fill="#FFFFFF" d="M338.791,84.454c0,0.603-0.483,1.088-1.088,1.088h-15.136c-0.602,0-1.088-0.485-1.088-1.088V69.116
	c0-0.603,0.486-1.089,1.088-1.089h15.136c0.604,0,1.088,0.486,1.088,1.089V84.454z"/>
<path fill="none" d="M276.998,50.65c0,1.424-1.155,2.58-2.58,2.58h-16.34c-1.425,0-2.58-1.156-2.58-2.58V34.31
	c0-1.425,1.155-2.58,2.58-2.58h16.34c1.425,0,2.58,1.155,2.58,2.58V50.65z"/>
<g>
	<path fill="#FFFFFF" d="M275.434,44.506c-2.159-3.124-6.229-4.529-9.965-3.17l0.74,2.034c0.077,0.212-0.004,0.438-0.182,0.502
		c-0.042,0.016-0.086,0.02-0.129,0.016l-7.647-1.873c-0.26-0.029-0.392-0.074-0.456-0.252c-0.064-0.178,0.019-0.317,0.188-0.486
		l4.744-6.311c0.016-0.009,0.035-0.013,0.051-0.023c0.161-0.117,0.384,0.055,0.462,0.268l0.789,2.17
		c4.441-1.616,9.353,0.674,10.969,5.115C275.269,43.242,275.407,43.838,275.434,44.506"/>
	<path fill="#FFFFFF" d="M270.558,46.07c-0.305,0.212-0.438,0.611-0.301,0.974l0.973,2.629c0.118,0.326,0.479,0.494,0.804,0.375
		c0.063-0.022,0.121-0.055,0.171-0.096l0.123-0.128c1.475-1.244,2.365-2.815,2.332-4.706c0,0-1.137-1.509-1.797-1.906
		c-0.404,1.052-1.155,1.908-2.118,2.693L270.558,46.07z"/>
</g>
<path fill="none" d="M251.556,50.65c0,1.424-1.155,2.58-2.58,2.58h-16.34c-1.425,0-2.58-1.156-2.58-2.58V34.31
	c0-1.425,1.155-2.58,2.58-2.58h16.34c1.425,0,2.58,1.155,2.58,2.58V50.65z"/>
<g>
	<path fill="#FFFFFF" d="M231.62,44.506c2.159-3.124,6.229-4.529,9.965-3.17l-0.74,2.034c-0.077,0.212,0.004,0.438,0.182,0.502
		c0.042,0.016,0.086,0.02,0.129,0.016l7.647-1.873c0.259-0.029,0.392-0.074,0.456-0.252c0.064-0.178-0.019-0.317-0.188-0.486
		l-4.744-6.311c-0.016-0.009-0.035-0.013-0.051-0.023c-0.161-0.117-0.385,0.055-0.462,0.268l-0.79,2.17
		c-4.44-1.616-9.352,0.674-10.968,5.115C231.785,43.242,231.647,43.838,231.62,44.506"/>
	<path fill="#FFFFFF" d="M236.495,46.07c0.305,0.212,0.438,0.611,0.302,0.974l-0.973,2.629c-0.118,0.326-0.479,0.494-0.804,0.375
		c-0.063-0.022-0.121-0.055-0.172-0.096l-0.122-0.128c-1.475-1.244-2.366-2.815-2.332-4.706c0,0,1.136-1.509,1.796-1.906
		c0.404,1.052,1.156,1.908,2.119,2.693L236.495,46.07z"/>
</g>
<path fill="none" d="M23.698,21.259c0,1.425-1.155,2.58-2.58,2.58H4.777c-1.425,0-2.58-1.155-2.58-2.58V4.919
	c0-1.425,1.155-2.58,2.58-2.58h16.34c1.425,0,2.58,1.155,2.58,2.58v16.34H23.698z"/>
<g>
	<rect x="7.189" y="9.479" fill="#FFFFFF" width="1.172" height="9.276"/>
	<rect x="7.2" y="17.583" fill="#FFFFFF" width="9.277" height="1.172"/>
	<polygon fill="#FFFFFF" points="8.916,9.479 6.635,9.479 7.775,8.339 	"/>
	<polygon fill="#FFFFFF" points="16.478,19.31 16.478,17.029 17.618,18.169 	"/>
	<rect x="7.2" y="14.689" fill="#FFFFFF" width="4.066" height="4.066"/>
</g>
<g>
	<path fill="#FFFFFF" d="M5.148,8.485V6.83L3.871,4.443H4.92l0.408,0.972c0.126,0.294,0.216,0.51,0.312,0.773h0.012
		c0.09-0.252,0.186-0.485,0.306-0.773l0.408-0.972h1.025L6.06,6.799v1.686H5.148z"/>
</g>
<g>
	<path fill="#FFFFFF" d="M20.634,19.648l-0.366-0.731c-0.15-0.282-0.246-0.492-0.36-0.726h-0.012
		c-0.084,0.233-0.186,0.443-0.318,0.726l-0.33,0.731h-1.043l1.169-2.045l-1.127-1.997h1.05l0.354,0.738
		c0.12,0.245,0.21,0.443,0.306,0.671h0.012c0.096-0.258,0.174-0.438,0.276-0.671l0.342-0.738h1.043l-1.139,1.973l1.199,2.069H20.634
		z"/>
</g>
<g>
	<path fill="#FFFFFF" d="M293.782,47.146h4.725c0.15,0,0.271-0.121,0.271-0.271v-0.563c0-0.148-0.121-0.271-0.271-0.271h-4.725
		v-1.825h4.725c0.15,0,0.271-0.121,0.271-0.271v-0.563c0-0.149-0.121-0.271-0.271-0.271h-4.725v-1.825h4.725
		c0.15,0,0.271-0.122,0.271-0.271v-0.563c0-0.149-0.121-0.271-0.271-0.271h-4.725v-1.825h4.725c0.15,0,0.271-0.121,0.271-0.271
		v-0.563c0-0.15-0.121-0.271-0.271-0.271h-4.725l-0.001-3.392c0.386,0,0.699-0.313,0.699-0.698c0-0.385-0.313-0.699-0.699-0.699
		v-0.473c0.647,0,1.172,0.525,1.172,1.172h1.224c0.588,0,1.064,0.477,1.064,1.064l0,0h2.037c0.262,0,0.474,0.211,0.474,0.473v14.42
		c0,0.261-0.212,0.473-0.474,0.473h-5.495L293.782,47.146z"/>
</g>
<g>
	<path fill="#FFFFFF" d="M293.79,49.593h-5.495c-0.262,0-0.474-0.212-0.474-0.473V34.7c0-0.262,0.212-0.473,0.474-0.473h2.037l0,0
		c0-0.588,0.477-1.064,1.064-1.064h1.224c0-0.646,0.524-1.172,1.172-1.172v0.473c-0.386,0-0.699,0.314-0.699,0.699
		c0,0.385,0.313,0.698,0.699,0.698l-0.001,3.392h-4.725c-0.15,0-0.271,0.121-0.271,0.271v0.563c0,0.149,0.121,0.271,0.271,0.271
		h4.725v1.825h-4.725c-0.15,0-0.271,0.121-0.271,0.271v0.563c0,0.148,0.121,0.271,0.271,0.271h4.725v1.825h-4.725
		c-0.15,0-0.271,0.121-0.271,0.271v0.563c0,0.149,0.121,0.271,0.271,0.271h4.725v1.825h-4.725c-0.15,0-0.271,0.122-0.271,0.271
		v0.563c0,0.149,0.121,0.271,0.271,0.271h4.725L293.79,49.593z"/>
</g>
<path fill="#FFFFFF" d="M494.002,16.828l-0.908,0.855c-0.475,0.448-1.224,0.425-1.671-0.05l0,0
	c-0.448-0.475-0.426-1.224,0.049-1.672l2.527-2.381L494.002,16.828z"/>
<g>
	<path fill="none" d="M577.423,91.341c0,1.391-1.129,2.52-2.521,2.52h-15.96c-1.392,0-2.52-1.129-2.52-2.52V75.38
		c0-1.391,1.128-2.52,2.52-2.52h15.96c1.392,0,2.521,1.129,2.521,2.52V91.341z"/>
</g>
<g>
	<path fill="none" d="M550.99,91.341c0,1.391-1.129,2.52-2.521,2.52h-15.96c-1.392,0-2.52-1.129-2.52-2.52V75.38
		c0-1.391,1.128-2.52,2.52-2.52h15.96c1.392,0,2.521,1.129,2.521,2.52V91.341z"/>
</g>
<g>
	<path fill="none" d="M603.771,91.341c0,1.391-1.128,2.52-2.52,2.52h-15.96c-1.393,0-2.521-1.129-2.521-2.52V75.38
		c0-1.391,1.128-2.52,2.521-2.52h15.96c1.392,0,2.52,1.129,2.52,2.52V91.341z"/>
</g>
<g>
	<path fill="none" d="M630.095,91.341c0,1.391-1.128,2.52-2.521,2.52h-15.96c-1.392,0-2.52-1.129-2.52-2.52V75.38
		c0-1.391,1.128-2.52,2.52-2.52h15.96c1.393,0,2.521,1.129,2.521,2.52V91.341z"/>
</g>
<path fill="#FFFFFF" d="M573.498,84.616c0,0.371-0.301,0.674-0.672,0.674H561.2c-0.371,0-0.672-0.303-0.672-0.674v-2.592
	c0-0.371,0.301-0.672,0.672-0.672h11.626c0.371,0,0.672,0.301,0.672,0.672V84.616z"/>
<path fill="#FFFFFF" d="M598.071,88.421c0,1.061-0.86,1.922-1.922,1.922h-7.917c-1.062,0-1.922-0.861-1.922-1.922v-7.918
	c0-1.061,0.86-1.922,1.922-1.922h7.917c1.062,0,1.922,0.861,1.922,1.922V88.421z M595.876,88.741c0.336,0,0.61-0.273,0.61-0.609
	v-7.297c0-0.336-0.274-0.609-0.61-0.609h-7.296c-0.337,0-0.61,0.273-0.61,0.609v7.297c0,0.336,0.273,0.609,0.61,0.609H595.876z"/>
<path fill="#FFFFFF" d="M589.255,78.026c0.119-0.946,0.927-1.67,1.906-1.67h7.149c1.063,0,1.923,0.861,1.923,1.922v7.186
	c0,0.93-0.692,1.703-1.568,1.883l-0.007-7.363c-0.095-1.322-1.062-1.973-2.123-1.973L589.255,78.026z"/>
<g>
	<polygon fill="#FFFFFF" points="623.311,90.024 619.712,85.157 616.114,90.024 613.432,90.024 618.37,83.351 613.396,76.576 
		616.021,76.576 619.712,81.567 623.404,76.576 626.026,76.576 621.022,83.351 625.99,90.024 	"/>
</g>
<g>
	<path fill="#FFFFFF" d="M540.507,75.671c0,0-4.906,0-4.804,5.254c0,0,0.071,1.372,1.106,2.938c0.709,1.071,0.691,2.004,0.691,2.004
		s-0.139,0.914,0.603,0.898h4.773c0.741,0.016,0.603-0.898,0.603-0.898s-0.018-0.933,0.691-2.004
		c1.035-1.565,1.106-2.938,1.106-2.938c0.103-5.254-4.804-5.254-4.804-5.254H540.507z"/>
	<path fill="#FFFFFF" d="M538.036,88.251c-0.257,0-0.466-0.209-0.466-0.467s0.209-0.466,0.466-0.466h4.839
		c0.258,0,0.467,0.208,0.467,0.466s-0.209,0.467-0.467,0.467H538.036z"/>
	<path fill="#FFFFFF" d="M538.036,89.633c-0.257,0-0.466-0.208-0.466-0.466s0.209-0.467,0.466-0.467h4.839
		c0.258,0,0.467,0.209,0.467,0.467s-0.209,0.466-0.467,0.466H538.036z"/>
	<path fill="#FFFFFF" d="M542.237,90.242c0,0.445-0.36,0.807-0.805,0.807h-1.937c-0.445,0-0.806-0.361-0.806-0.807H542.237z"/>
</g>
</svg>
